<svg width="24" height="25" viewBox="0 0 24 25" fill="none" xmlns="http://www.w3.org/2000/svg">
<path d="M3.07289 3.28814C3.77489 2.58614 4.769 2.31014 5.735 2.55114L18.8478 5.82916C20.5958 6.26616 21.7619 7.77014 21.7489 9.57214C21.7359 11.3741 20.5498 12.8611 18.7958 13.2741L14.1498 14.3672L13.0568 19.0121C12.6438 20.7661 11.1569 21.9521 9.35487 21.9651C9.34587 21.9651 9.3358 21.9651 9.3268 21.9651C7.5378 21.9651 6.04793 20.8021 5.61293 19.0641L2.33485 5.95114C2.09485 4.98614 2.36989 3.99114 3.07289 3.28814ZM3.79091 5.58716L7.06898 18.7001C7.39798 20.0131 8.45884 20.4731 9.34584 20.4651C10.1908 20.4591 11.2868 19.9852 11.5968 18.6692L12.7008 13.9781L8.46986 9.74615C8.17686 9.45315 8.17686 8.97815 8.46986 8.68515C8.76286 8.39215 9.2379 8.39215 9.5309 8.68515L13.7628 12.9171L18.454 11.8131C19.771 11.5031 20.2449 10.4062 20.2509 9.56115C20.2569 8.71615 19.798 7.61215 18.486 7.28415L5.37294 4.00613C5.26594 3.97913 5.1579 3.96615 5.0519 3.96615C4.71189 3.96615 4.3839 4.10015 4.1349 4.34915C3.8079 4.67515 3.67891 5.13815 3.79091 5.58716Z" fill="#195245"/>
</svg>
