<svg width="31" height="31" viewBox="0 0 31 31" fill="none" xmlns="http://www.w3.org/2000/svg">
<rect width="30.4303" height="30.4303" rx="15.2151" fill="#195245"/>
<path d="M15.9651 21.927V24.2151C15.9651 24.6291 15.6291 24.9651 15.2151 24.9651C14.8011 24.9651 14.4651 24.6291 14.4651 24.2151V21.927C10.5421 21.549 7.46512 18.2351 7.46512 14.2151C7.46512 13.8011 7.80112 13.4651 8.21512 13.4651C8.62912 13.4651 8.96512 13.8011 8.96512 14.2151C8.96512 17.6611 11.7691 20.4651 15.2151 20.4651C18.6611 20.4651 21.4651 17.6611 21.4651 14.2151C21.4651 13.8011 21.8011 13.4651 22.2151 13.4651C22.6291 13.4651 22.9651 13.8011 22.9651 14.2151C22.9651 18.2351 19.8881 21.548 15.9651 21.927ZM10.4651 14.2151V10.2151C10.4651 7.59609 12.5961 5.46509 15.2151 5.46509C17.8341 5.46509 19.9651 7.59609 19.9651 10.2151V14.2151C19.9651 16.8341 17.8341 18.9651 15.2151 18.9651C12.5961 18.9651 10.4651 16.8341 10.4651 14.2151ZM11.9651 14.2151C11.9651 16.0071 13.4231 17.4651 15.2151 17.4651C17.0071 17.4651 18.4651 16.0071 18.4651 14.2151V10.2151C18.4651 8.42309 17.0071 6.96509 15.2151 6.96509C13.4231 6.96509 11.9651 8.42309 11.9651 10.2151V14.2151Z" fill="white"/>
</svg>
