<svg width="31" height="31" viewBox="0 0 31 31" fill="none" xmlns="http://www.w3.org/2000/svg">
<rect x="-1.52588e-05" y="6.10352e-05" width="30.4303" height="30.4303" rx="15.2151" fill="#195245"/>
<path d="M10.3799 9.26242L20.2147 11.7209C22.5644 12.3082 22.5412 15.6562 20.1832 16.2112L17.1238 16.9312C17.0481 16.9492 16.9678 16.9267 16.9131 16.8712L13.3596 13.3177C13.1421 13.1002 12.7822 13.1002 12.5647 13.3177C12.3472 13.5352 12.3472 13.8952 12.5647 14.1127L16.1197 17.6677C16.1744 17.7224 16.1976 17.8027 16.1796 17.8784L15.4603 20.9347C14.9053 23.2927 11.5575 23.3159 10.9702 20.9662L8.51166 11.1314C8.23041 10.0019 9.25264 8.98042 10.3799 9.26242Z" fill="white"/>
</svg>
