<?xml version="1.0" encoding="UTF-8"?>
<svg xmlns="http://www.w3.org/2000/svg" xmlns:xlink="http://www.w3.org/1999/xlink" width="22px" height="23px" viewBox="0 0 8 8" version="1.1">
<defs>
<clipPath id="clip1">
  <path d="M 0 0.140625 L 6 0.140625 L 6 7.898438 L 0 7.898438 Z M 0 0.140625 "/>
</clipPath>
</defs>
<g id="surface1">
<path style=" stroke:none;fill-rule:nonzero;fill:rgb(22.745098%,75.294119%,62.7451%);fill-opacity:1;" d="M 5.332031 4.019531 C 5.332031 4.3125 5.089844 4.546875 4.789062 4.546875 C 4.488281 4.546875 4.242188 4.3125 4.242188 4.019531 C 4.242188 3.726562 4.488281 3.488281 4.789062 3.488281 C 5.089844 3.488281 5.332031 3.726562 5.332031 4.019531 Z M 5.332031 4.019531 "/>
<path style=" stroke:none;fill-rule:nonzero;fill:rgb(22.745098%,75.294119%,62.7451%);fill-opacity:1;" d="M 3.757812 4.019531 C 3.757812 4.3125 3.511719 4.546875 3.210938 4.546875 C 2.910156 4.546875 2.667969 4.3125 2.667969 4.019531 C 2.667969 3.726562 2.910156 3.488281 3.210938 3.488281 C 3.511719 3.488281 3.757812 3.726562 3.757812 4.019531 Z M 3.757812 4.019531 "/>
<path style=" stroke:none;fill-rule:nonzero;fill:rgb(22.745098%,75.294119%,62.7451%);fill-opacity:1;" d="M 5.882812 1.40625 C 5.742188 1.605469 5.832031 1.882812 6.046875 2.011719 C 6.746094 2.421875 7.210938 3.167969 7.210938 4.019531 C 7.210938 4.867188 6.746094 5.613281 6.050781 6.027344 C 5.835938 6.152344 5.742188 6.429688 5.886719 6.632812 C 5.992188 6.773438 6.1875 6.828125 6.34375 6.746094 C 7.332031 6.214844 8 5.191406 8 4.019531 C 8 2.84375 7.332031 1.824219 6.339844 1.292969 C 6.183594 1.207031 5.988281 1.261719 5.882812 1.40625 Z M 5.882812 1.40625 "/>
<path style=" stroke:none;fill-rule:nonzero;fill:rgb(22.745098%,75.294119%,62.7451%);fill-opacity:1;" d="M 5.175781 2.386719 C 5.035156 2.585938 5.179688 2.878906 5.394531 3 C 5.757812 3.207031 6 3.585938 6 4.019531 C 6 4.453125 5.757812 4.832031 5.398438 5.035156 C 5.179688 5.15625 5.035156 5.453125 5.179688 5.652344 C 5.257812 5.757812 5.398438 5.808594 5.523438 5.757812 C 6.230469 5.480469 6.726562 4.804688 6.726562 4.019531 C 6.726562 3.230469 6.226562 2.558594 5.519531 2.277344 C 5.394531 2.226562 5.253906 2.277344 5.175781 2.386719 Z M 5.175781 2.386719 "/>
<g clip-path="url(#clip1)" clip-rule="nonzero">
<path style=" stroke:none;fill-rule:nonzero;fill:rgb(22.745098%,75.294119%,62.7451%);fill-opacity:1;" d="M 0 4.019531 C 0 2.296875 1.4375 0.902344 3.210938 0.902344 L 4.878906 0.902344 C 5.097656 0.902344 5.273438 1.074219 5.273438 1.285156 C 5.273438 1.496094 5.097656 1.667969 4.878906 1.667969 L 3.210938 1.667969 C 1.875 1.667969 0.789062 2.722656 0.789062 4.019531 C 0.789062 5.316406 1.875 6.371094 3.210938 6.371094 L 4.878906 6.371094 C 5.097656 6.371094 5.273438 6.539062 5.273438 6.75 C 5.273438 6.960938 5.097656 7.132812 4.878906 7.132812 L 0.339844 7.132812 C 0.296875 7.132812 0.265625 7.085938 0.289062 7.046875 L 0.707031 6.257812 C 0.765625 6.148438 0.746094 6.019531 0.671875 5.921875 C 0.25 5.398438 0 4.734375 0 4.019531 Z M 0 4.019531 "/>
</g>
</g>
</svg>
