<svg width="51" height="51" viewBox="0 0 51 51" fill="none" xmlns="http://www.w3.org/2000/svg">
<g clip-path="url(#clip0_0_93)">
<path d="M33.6845 25C33.6845 26.9121 32.1344 28.4622 30.2223 28.4622C28.3102 28.4622 26.7601 26.9121 26.7601 25C26.7601 23.0879 28.3102 21.5378 30.2223 21.5378C32.1344 21.5378 33.6845 23.0879 33.6845 25Z" fill="white"/>
<path d="M23.6827 25C23.6827 26.9121 22.1326 28.4622 20.2205 28.4622C18.3084 28.4622 16.7583 26.9121 16.7583 25C16.7583 23.0879 18.3084 21.5378 20.2205 21.5378C22.1326 21.5378 23.6827 23.0879 23.6827 25Z" fill="white"/>
<path d="M37.1838 7.89313C36.2689 9.20024 36.8622 11.0233 38.2243 11.8543C42.6531 14.5559 45.6098 19.4327 45.6098 25C45.6098 30.5611 42.6597 35.4332 38.2392 38.1367C36.8789 38.9685 36.2873 40.7902 37.2017 42.0965C37.8597 43.0364 39.0969 43.3967 40.1002 42.84C46.3683 39.362 50.6107 32.6764 50.6107 25C50.6107 17.3152 46.359 10.6234 40.0796 7.1486C39.0767 6.59362 37.8412 6.95411 37.1838 7.89313Z" fill="white"/>
<path d="M32.6948 14.306C31.7808 15.6116 32.7005 17.5411 34.0788 18.3411C36.3732 19.6728 37.9161 22.1562 37.9161 25C37.9161 27.8386 36.3788 30.3182 34.0913 31.6516C32.7155 32.4536 31.8002 34.3802 32.7134 35.6848C33.206 36.3884 34.0959 36.7199 34.8906 36.394C39.3743 34.555 42.5323 30.1463 42.5323 25C42.5323 19.8445 39.3631 15.4293 34.8665 13.5962C34.0732 13.2728 33.186 13.6042 32.6948 14.306Z" fill="white"/>
<path d="M-0.167847 25C-0.167847 13.7398 8.96038 4.61162 20.2205 4.61162H30.7994C32.1804 4.61162 33.2999 5.73112 33.2999 7.11208C33.2999 8.49305 32.1804 9.61255 30.7994 9.61255H20.2205C11.7223 9.61255 4.83308 16.5017 4.83308 25C4.83308 33.4983 11.7223 40.3875 20.2205 40.3875H30.7994C32.1804 40.3875 33.2999 41.507 33.2999 42.8879C33.2999 44.2689 32.1804 45.3884 30.7994 45.3884H2.00088C1.7131 45.3884 1.52722 45.084 1.65868 44.828L4.32138 39.6427C4.68277 38.939 4.5694 38.0909 4.0853 37.4651C1.41888 34.0187 -0.167847 29.6947 -0.167847 25Z" fill="white"/>
</g>
<defs>
<clipPath id="clip0_0_93">
<rect width="50.7786" height="50.7786" fill="white" transform="translate(0.221436)"/>
</clipPath>
</defs>
</svg>
