<svg width="32" height="33" viewBox="0 0 32 33" fill="none" xmlns="http://www.w3.org/2000/svg">
<g clip-path="url(#clip0_0_117)">
<path d="M21.3334 16.5786C21.3334 17.7836 20.3565 18.7604 19.1515 18.7604C17.9466 18.7604 16.9697 17.7836 16.9697 16.5786C16.9697 15.3736 17.9466 14.3968 19.1515 14.3968C20.3565 14.3968 21.3334 15.3736 21.3334 16.5786Z" fill="#3AC0A0"/>
<path d="M15.0303 16.5786C15.0303 17.7836 14.0535 18.7604 12.8485 18.7604C11.6435 18.7604 10.6667 17.7836 10.6667 16.5786C10.6667 15.3736 11.6435 14.3968 12.8485 14.3968C14.0535 14.3968 15.0303 15.3736 15.0303 16.5786Z" fill="#3AC0A0"/>
<path d="M23.5386 5.79807C22.9619 6.6218 23.3359 7.7707 24.1943 8.29432C26.9852 9.99686 28.8485 13.0701 28.8485 16.5786C28.8485 20.0831 26.9894 23.1535 24.2036 24.8572C23.3464 25.3814 22.9736 26.5294 23.5498 27.3526C23.9645 27.9449 24.7442 28.172 25.3764 27.8211C29.3265 25.6293 32 21.4162 32 16.5786C32 11.7357 29.3207 7.51866 25.3635 5.32888C24.7314 4.97914 23.9528 5.20631 23.5386 5.79807Z" fill="#3AC0A0"/>
<path d="M20.7096 9.83937C20.1336 10.6621 20.7132 11.8781 21.5818 12.3823C23.0276 13.2214 24 14.7865 24 16.5786C24 18.3675 23.0312 19.9301 21.5897 20.7704C20.7227 21.2757 20.1458 22.4899 20.7213 23.312C21.0317 23.7554 21.5926 23.9643 22.0933 23.7589C24.919 22.6 26.9091 19.8217 26.9091 16.5786C26.9091 13.3297 24.9119 10.5472 22.0782 9.39206C21.5783 9.18827 21.0192 9.39709 20.7096 9.83937Z" fill="#3AC0A0"/>
<path d="M0 16.5786C0 9.48257 5.75249 3.7301 12.8485 3.7301H19.5152C20.3854 3.7301 21.0909 4.43559 21.0909 5.30586C21.0909 6.17613 20.3854 6.88162 19.5152 6.88162H12.8485C7.49302 6.88162 3.15152 11.2231 3.15152 16.5786C3.15152 21.9341 7.49302 26.2756 12.8485 26.2756H19.5152C20.3854 26.2756 21.0909 26.9811 21.0909 27.8513C21.0909 28.7216 20.3854 29.4271 19.5152 29.4271H1.36671C1.18535 29.4271 1.06821 29.2353 1.15105 29.0739L2.82905 25.8062C3.05679 25.3627 2.98535 24.8283 2.68028 24.434C0.999935 22.2621 0 19.5371 0 16.5786Z" fill="#3AC0A0"/>
</g>
<defs>
<clipPath id="clip0_0_117">
<rect width="32" height="32" fill="white" transform="translate(0 0.578583)"/>
</clipPath>
</defs>
</svg>
