<svg width="25" height="25" viewBox="0 0 25 25" fill="none" xmlns="http://www.w3.org/2000/svg">
<path d="M13.1802 18.9271V21.2152C13.1802 21.6292 12.8442 21.9652 12.4302 21.9652C12.0162 21.9652 11.6802 21.6292 11.6802 21.2152V18.9271C7.75724 18.5491 4.68024 15.2352 4.68024 11.2152C4.68024 10.8012 5.01624 10.4652 5.43024 10.4652C5.84424 10.4652 6.18024 10.8012 6.18024 11.2152C6.18024 14.6612 8.98424 17.4652 12.4302 17.4652C15.8762 17.4652 18.6802 14.6612 18.6802 11.2152C18.6802 10.8012 19.0162 10.4652 19.4302 10.4652C19.8442 10.4652 20.1802 10.8012 20.1802 11.2152C20.1802 15.2352 17.1032 18.5481 13.1802 18.9271ZM7.68024 11.2152V7.21521C7.68024 4.59621 9.81124 2.46521 12.4302 2.46521C15.0492 2.46521 17.1802 4.59621 17.1802 7.21521V11.2152C17.1802 13.8342 15.0492 15.9652 12.4302 15.9652C9.81124 15.9652 7.68024 13.8342 7.68024 11.2152ZM9.18024 11.2152C9.18024 13.0072 10.6382 14.4652 12.4302 14.4652C14.2222 14.4652 15.6802 13.0072 15.6802 11.2152V7.21521C15.6802 5.42321 14.2222 3.96521 12.4302 3.96521C10.6382 3.96521 9.18024 5.42321 9.18024 7.21521V11.2152Z" fill="#195245"/>
</svg>
